<svg width="228" height="229" viewBox="0 0 228 229" fill="none" xmlns="http://www.w3.org/2000/svg">
<g clip-path="url(#clip0_3687_3776)">
<path d="M201.333 137.804C200.231 147.244 197.941 154.823 194.799 160.868C190.617 168.922 183.464 172.167 177.074 175.563C175.228 176.542 173.308 177.377 171.333 178.059C159.705 182.095 146.692 181.024 136.47 178.894C129.3 177.398 122.022 176.478 114.706 176.142C112.619 176.048 110.53 176.001 108.439 176.002C105.215 176.006 47.1618 177.108 33.0274 148.492C29.5378 141.433 27.1458 132.811 26.2864 122.3C23.8547 92.5841 37.2196 73.0679 54.4589 60.3114C87.0704 36.1806 131.771 37.1925 163.902 61.959C185.304 78.4561 205.343 103.423 201.333 137.804Z" fill="#3F3D56"/>
<path d="M194.803 160.869C190.621 168.923 184.932 174.259 178.542 177.655C176.695 178.634 174.776 179.469 172.8 180.151C161.173 184.187 148.159 183.116 137.937 180.986C130.767 179.49 123.489 178.57 116.173 178.234C114.086 178.14 111.997 178.093 109.907 178.094C106.682 178.098 103.459 178.218 100.236 178.454C79.292 179.992 47.1656 177.109 33.0312 148.493L68.3964 79.9961L81.5585 113.789L85.759 124.576L97.3362 108.689L103.314 100.487L130.537 131.697L138.232 114.705L191.503 158.178L194.474 160.601L194.803 160.869Z" fill="#F2F2F2"/>
<path opacity="0.1" d="M63.375 101.949L68.8113 90.0312L76.3385 107.386L69.8567 94.8403L63.375 101.949Z" fill="black"/>
<path opacity="0.1" d="M116.164 178.232C114.077 178.138 111.988 178.092 109.898 178.092L85.75 124.574L116.164 178.232Z" fill="black"/>
<path opacity="0.1" d="M97.332 108.687L103.31 104.039L130.491 135.402L102.891 108.639L97.332 108.687Z" fill="black"/>
<path opacity="0.1" d="M178.544 177.653C176.697 178.632 174.778 179.467 172.802 180.149L130.539 131.695L178.544 177.653Z" fill="black"/>
<path d="M101.014 64.7311C101.36 64.7311 101.641 64.4503 101.641 64.1038C101.641 63.7574 101.36 63.4766 101.014 63.4766C100.668 63.4766 100.387 63.7574 100.387 64.1038C100.387 64.4503 100.668 64.7311 101.014 64.7311Z" fill="#F2F2F2"/>
<path d="M83.6585 86.2662C84.0049 86.2662 84.2858 85.9854 84.2858 85.639C84.2858 85.2926 84.0049 85.0117 83.6585 85.0117C83.3121 85.0117 83.0312 85.2926 83.0312 85.639C83.0312 85.9854 83.3121 86.2662 83.6585 86.2662Z" fill="#F2F2F2"/>
<path d="M126.106 89.8207C126.337 89.8207 126.524 89.6335 126.524 89.4026C126.524 89.1716 126.337 88.9844 126.106 88.9844C125.875 88.9844 125.688 89.1716 125.688 89.4026C125.688 89.6335 125.875 89.8207 126.106 89.8207Z" fill="#F2F2F2"/>
<path d="M38.2815 99.2309C38.5124 99.2309 38.6996 99.0437 38.6996 98.8127C38.6996 98.5818 38.5124 98.3945 38.2815 98.3945C38.0505 98.3945 37.8633 98.5818 37.8633 98.8127C37.8633 99.0437 38.0505 99.2309 38.2815 99.2309Z" fill="#F2F2F2"/>
<path d="M128.61 63.8949C128.841 63.8949 129.028 63.7077 129.028 63.4768C129.028 63.2458 128.841 63.0586 128.61 63.0586C128.379 63.0586 128.191 63.2458 128.191 63.4768C128.191 63.7077 128.379 63.8949 128.61 63.8949Z" fill="#F2F2F2"/>
<path d="M154.539 83.9692C154.77 83.9692 154.957 83.7819 154.957 83.551C154.957 83.32 154.77 83.1328 154.539 83.1328C154.308 83.1328 154.121 83.32 154.121 83.551C154.121 83.7819 154.308 83.9692 154.539 83.9692Z" fill="#F2F2F2"/>
<path d="M180.043 115.75C180.274 115.75 180.461 115.563 180.461 115.332C180.461 115.101 180.274 114.914 180.043 114.914C179.812 114.914 179.625 115.101 179.625 115.332C179.625 115.563 179.812 115.75 180.043 115.75Z" fill="#F2F2F2"/>
<path d="M64.2097 68.1318H63.6326V67.5547H63.3232V68.1318H62.7461V68.4408H63.3232V69.0177H63.6326V68.4408H64.2097V68.1318Z" fill="#F2F2F2"/>
<path d="M177.534 131.483H176.957V130.906H176.647V131.483H176.07V131.792H176.647V132.369H176.957V131.792H177.534V131.483Z" fill="#F2F2F2"/>
<path d="M227.718 171.158C227.718 174.623 176.793 186.631 113.974 186.631C51.1553 186.631 0.230469 174.623 0.230469 171.158C0.230469 167.694 51.1553 174.085 113.974 174.085C176.793 174.085 227.718 167.694 227.718 171.158Z" fill="#3F3D56"/>
<path opacity="0.1" d="M227.718 171.158C227.718 174.623 176.793 186.631 113.974 186.631C51.1553 186.631 0.230469 174.623 0.230469 171.158C0.230469 167.694 51.1553 174.085 113.974 174.085C176.793 174.085 227.718 167.694 227.718 171.158Z" fill="black"/>
<path d="M113.974 177.428C176.793 177.428 227.718 174.62 227.718 171.155C227.718 167.691 176.793 164.883 113.974 164.883C51.1553 164.883 0.230469 167.691 0.230469 171.155C0.230469 174.62 51.1553 177.428 113.974 177.428Z" fill="#3F3D56"/>
<path d="M118.995 162.377C118.995 169.306 115.906 167.395 112.095 167.395C108.285 167.395 105.195 169.306 105.195 162.377C105.195 155.449 112.095 142.305 112.095 142.305C112.095 142.305 118.995 155.449 118.995 162.377Z" fill="#FF6584"/>
<path opacity="0.1" d="M115.226 165.026C115.226 168.175 113.822 167.307 112.089 167.307C110.357 167.307 108.953 168.175 108.953 165.026C108.953 161.877 112.089 155.902 112.089 155.902C112.089 155.902 115.226 161.877 115.226 165.026Z" fill="black"/>
<path d="M119.831 169.273H104.358C103.319 169.273 102.477 170.116 102.477 171.155C102.477 172.195 103.319 173.037 104.358 173.037H119.831C120.87 173.037 121.713 172.195 121.713 171.155C121.713 170.116 120.87 169.273 119.831 169.273Z" fill="#2F2E41"/>
<path d="M119.831 165.512H104.358C103.319 165.512 102.477 166.354 102.477 167.394C102.477 168.433 103.319 169.275 104.358 169.275H119.831C120.87 169.275 121.713 168.433 121.713 167.394C121.713 166.354 120.87 165.512 119.831 165.512Z" fill="#2F2E41"/>
<path d="M28.8789 145.348C28.8789 156.919 36.1382 166.283 45.1096 166.283L28.8789 145.348Z" fill="#3F3D56"/>
<path d="M45.1055 166.284C45.1055 154.582 53.2066 145.113 63.2179 145.113L45.1055 166.284Z" fill="#6C63FF"/>
<path d="M34.7539 146.398C34.7539 157.39 39.3831 166.285 45.1038 166.285L34.7539 146.398Z" fill="#6C63FF"/>
<path d="M45.1055 166.286C45.1055 151.333 54.4691 139.234 66.0406 139.234L45.1055 166.286Z" fill="#3F3D56"/>
<path d="M41.6953 166.431C41.6953 166.431 43.9972 166.36 44.6907 165.866C45.3843 165.373 48.2314 164.783 48.4035 165.575C48.5756 166.367 51.8626 169.515 49.2639 169.536C46.6651 169.557 43.2256 169.131 42.5333 168.709C41.841 168.288 41.6953 166.431 41.6953 166.431Z" fill="#A8A8A8"/>
<path opacity="0.2" d="M49.3105 169.262C46.7118 169.282 43.2723 168.857 42.58 168.435C42.0526 168.114 41.8425 166.961 41.7723 166.43L41.6953 166.433C41.6953 166.433 41.8417 168.289 42.5335 168.712C43.2254 169.134 46.6653 169.559 49.2641 169.538C50.0143 169.532 50.2734 169.265 50.2591 168.869C50.155 169.108 49.8688 169.257 49.3105 169.262Z" fill="black"/>
<path d="M151.074 152.988C151.074 160.94 156.062 167.374 162.227 167.374L151.074 152.988Z" fill="#3F3D56"/>
<path d="M162.227 167.372C162.227 159.331 167.793 152.824 174.673 152.824L162.227 167.372Z" fill="#6C63FF"/>
<path d="M155.117 153.707C155.117 161.26 158.298 167.372 162.229 167.372L155.117 153.707Z" fill="#6C63FF"/>
<path d="M162.227 167.373C162.227 157.099 168.661 148.785 176.612 148.785L162.227 167.373Z" fill="#3F3D56"/>
<path d="M159.879 167.476C159.879 167.476 161.461 167.427 161.937 167.088C162.414 166.748 164.37 166.343 164.488 166.887C164.606 167.432 166.865 169.595 165.079 169.609C163.294 169.624 160.93 169.331 160.455 169.041C159.979 168.752 159.879 167.476 159.879 167.476Z" fill="#A8A8A8"/>
<path opacity="0.2" d="M165.112 169.418C163.326 169.433 160.962 169.14 160.487 168.851C160.124 168.63 159.98 167.838 159.932 167.473L159.879 167.475C159.879 167.475 159.979 168.75 160.455 169.04C160.931 169.33 163.294 169.623 165.08 169.608C165.595 169.604 165.773 169.42 165.763 169.148C165.692 169.313 165.495 169.415 165.112 169.418Z" fill="black"/>
<path d="M187.117 172.147C187.117 172.147 189.492 171.785 190.149 171.187C190.805 170.588 193.68 169.621 193.958 170.42C194.235 171.219 198.034 174.068 195.345 174.415C192.656 174.762 189.04 174.752 188.27 174.402C187.5 174.052 187.117 172.147 187.117 172.147Z" fill="#A8A8A8"/>
<path opacity="0.2" d="M195.358 174.126C192.669 174.473 189.054 174.463 188.284 174.113C187.698 173.846 187.335 172.679 187.196 172.137L187.117 172.149C187.117 172.149 187.5 174.054 188.271 174.404C189.041 174.754 192.656 174.765 195.345 174.418C196.121 174.318 196.356 174.009 196.292 173.601C196.214 173.861 195.936 174.052 195.358 174.126Z" fill="black"/>
<path d="M128.664 171.979C128.664 171.979 130.669 171.674 131.223 171.168C131.777 170.663 134.203 169.847 134.437 170.521C134.671 171.196 137.877 173.6 135.608 173.893C133.339 174.186 130.287 174.177 129.638 173.881C128.988 173.586 128.664 171.979 128.664 171.979Z" fill="#A8A8A8"/>
<path opacity="0.2" d="M135.619 173.644C133.35 173.937 130.299 173.928 129.649 173.633C129.154 173.408 128.849 172.422 128.731 171.965L128.664 171.975C128.664 171.975 128.988 173.583 129.637 173.878C130.287 174.174 133.338 174.183 135.608 173.89C136.263 173.806 136.461 173.545 136.407 173.2C136.341 173.421 136.107 173.581 135.619 173.644Z" fill="black"/>
<path d="M25.8242 170.974C25.8242 170.974 27.3846 170.736 27.8162 170.343C28.2478 169.95 30.1371 169.315 30.3188 169.84C30.5005 170.365 32.9968 172.236 31.23 172.464C29.4632 172.692 27.0877 172.685 26.582 172.455C26.0762 172.225 25.8242 170.974 25.8242 170.974Z" fill="#A8A8A8"/>
<path opacity="0.2" d="M31.2388 172.276C29.4722 172.504 27.0965 172.497 26.5907 172.267C26.2056 172.092 25.9679 171.325 25.8763 170.969L25.8242 170.977C25.8242 170.977 26.0751 172.228 26.582 172.459C27.0888 172.689 29.4634 172.695 31.23 172.467C31.7399 172.402 31.8942 172.199 31.8522 171.931C31.8008 172.102 31.6183 172.227 31.2388 172.276Z" fill="black"/>
<path opacity="0.1" d="M80.4623 168.513C80.4623 174.832 71.6547 172.878 60.8708 172.878C50.0869 172.878 41.4102 174.832 41.4102 168.513C41.4102 162.195 50.2165 160.82 61.0004 160.82C71.7844 160.82 80.4623 162.195 80.4623 168.513Z" fill="black"/>
<path d="M80.4623 166.96C80.4623 173.279 71.6547 171.324 60.8708 171.324C50.0869 171.324 41.4102 173.279 41.4102 166.96C41.4102 160.641 50.2157 159.266 60.9996 159.266C71.7835 159.266 80.4623 160.641 80.4623 166.96Z" fill="#3F3D56"/>
</g>
<defs>
<clipPath id="clip0_3687_3776">
<rect width="227.488" height="227.488" fill="white" transform="translate(0.226562 0.964844)"/>
</clipPath>
</defs>
</svg>
