<svg width="229" height="229" viewBox="0 0 229 229" fill="none" xmlns="http://www.w3.org/2000/svg">
<g clip-path="url(#clip0_3687_3827)">
<path d="M65.3595 177.274C101.081 177.274 130.039 148.316 130.039 112.594C130.039 76.8722 101.081 47.9141 65.3595 47.9141C29.6378 47.9141 0.679688 76.8722 0.679688 112.594C0.679688 148.316 29.6378 177.274 65.3595 177.274Z" fill="#F2F2F2"/>
<path d="M113.311 181.504C170.51 181.504 216.879 179.023 216.879 175.963C216.879 172.903 170.51 170.422 113.311 170.422C56.1113 170.422 9.74219 172.903 9.74219 175.963C9.74219 179.023 56.1113 181.504 113.311 181.504Z" fill="#3F3D56"/>
<path opacity="0.2" d="M113.113 178.682C164.303 178.682 205.801 176.698 205.801 174.249C205.801 171.801 164.303 169.816 113.113 169.816C61.9234 169.816 20.4258 171.801 20.4258 174.249C20.4258 176.698 61.9234 178.682 113.113 178.682Z" fill="black"/>
<path d="M27.0703 78.6406H196.326V88.7154H27.0703V78.6406Z" fill="#3F3D56"/>
<path d="M27.0703 170.59C27.0703 171.164 27.1833 171.731 27.4027 172.261C27.6221 172.791 27.9437 173.272 28.3492 173.678C28.7547 174.083 29.236 174.405 29.7658 174.624C30.2955 174.844 30.8633 174.957 31.4367 174.957H191.96C193.118 174.957 194.228 174.497 195.047 173.678C195.866 172.859 196.326 171.748 196.326 170.59V83.6795H27.0703V170.59ZM191.96 71.5898H31.4367C30.2787 71.5898 29.1681 72.0499 28.3492 72.8687C27.5303 73.6876 27.0703 74.7982 27.0703 75.9562V83.6795H196.326V75.9562C196.326 74.7982 195.866 73.6876 195.047 72.8687C194.228 72.0499 193.118 71.5898 191.96 71.5898Z" fill="#3F3D56"/>
<path opacity="0.2" d="M191.96 71.5898H31.4367C30.2787 71.5898 29.1681 72.0499 28.3492 72.8687C27.5303 73.6876 27.0703 74.7982 27.0703 75.9562V83.6795H196.326V75.9562C196.326 74.7982 195.866 73.6876 195.047 72.8687C194.228 72.0499 193.118 71.5898 191.96 71.5898Z" fill="black"/>
<path d="M37.1468 80.2545C38.5935 80.2545 39.7662 79.0817 39.7662 77.6351C39.7662 76.1884 38.5935 75.0156 37.1468 75.0156C35.7001 75.0156 34.5273 76.1884 34.5273 77.6351C34.5273 79.0817 35.7001 80.2545 37.1468 80.2545Z" fill="#3F3D56"/>
<path d="M44.4085 80.2545C45.8552 80.2545 47.0279 79.0817 47.0279 77.6351C47.0279 76.1884 45.8552 75.0156 44.4085 75.0156C42.9618 75.0156 41.7891 76.1884 41.7891 77.6351C41.7891 79.0817 42.9618 80.2545 44.4085 80.2545Z" fill="#3F3D56"/>
<path d="M51.6585 80.2545C53.1052 80.2545 54.2779 79.0817 54.2779 77.6351C54.2779 76.1884 53.1052 75.0156 51.6585 75.0156C50.2118 75.0156 49.0391 76.1884 49.0391 77.6351C49.0391 79.0817 50.2118 80.2545 51.6585 80.2545Z" fill="#3F3D56"/>
<path d="M101.356 90.9336H35.6023C35.0086 90.9336 34.5273 91.4149 34.5273 92.0086V167.636C34.5273 168.229 35.0086 168.711 35.6023 168.711H101.356C101.95 168.711 102.431 168.229 102.431 167.636V92.0086C102.431 91.4149 101.95 90.9336 101.356 90.9336Z" fill="#606060"/>
<path d="M178.301 102.82H123.283C122.674 102.82 122.18 103.314 122.18 103.924V106.15C122.18 106.759 122.674 107.253 123.283 107.253H178.301C178.91 107.253 179.404 106.759 179.404 106.15V103.924C179.404 103.314 178.91 102.82 178.301 102.82Z" fill="#F29A99"/>
<path d="M191.597 118.941H109.982C109.373 118.941 108.879 119.435 108.879 120.045V120.86C108.879 121.47 109.373 121.964 109.982 121.964H191.597C192.207 121.964 192.701 121.47 192.701 120.86V120.045C192.701 119.435 192.207 118.941 191.597 118.941Z" fill="#F29A99"/>
<path d="M191.597 127.805H109.982C109.373 127.805 108.879 128.299 108.879 128.908V129.724C108.879 130.333 109.373 130.827 109.982 130.827H191.597C192.207 130.827 192.701 130.333 192.701 129.724V128.908C192.701 128.299 192.207 127.805 191.597 127.805Z" fill="#F29A99"/>
<path d="M191.597 136.672H109.982C109.373 136.672 108.879 137.166 108.879 137.775V138.591C108.879 139.2 109.373 139.694 109.982 139.694H191.597C192.207 139.694 192.701 139.2 192.701 138.591V137.775C192.701 137.166 192.207 136.672 191.597 136.672Z" fill="#F29A99"/>
<path d="M191.597 145.539H109.982C109.373 145.539 108.879 146.033 108.879 146.642V147.458C108.879 148.067 109.373 148.561 109.982 148.561H191.597C192.207 148.561 192.701 148.067 192.701 147.458V146.642C192.701 146.033 192.207 145.539 191.597 145.539Z" fill="#F29A99"/>
<path d="M191.288 159.238H176.389C175.607 159.238 174.973 159.872 174.973 160.654V163.061C174.973 163.843 175.607 164.477 176.389 164.477H191.288C192.07 164.477 192.704 163.843 192.704 163.061V160.654C192.704 159.872 192.07 159.238 191.288 159.238Z" fill="#FF7D7A"/>
<path d="M212.876 149.895C213.412 148.959 213.689 147.897 213.679 146.818C213.679 144.038 211.957 141.785 209.834 141.785C207.71 141.785 205.989 144.038 205.989 146.818C205.978 147.897 206.255 148.959 206.791 149.895C206.265 150.834 205.989 151.893 205.989 152.971C205.989 154.048 206.265 155.107 206.791 156.047C206.265 156.986 205.989 158.045 205.989 159.123C205.989 160.2 206.265 161.259 206.791 162.199C206.265 163.138 205.989 164.198 205.989 165.275C205.989 166.352 206.265 167.411 206.791 168.351C206.255 169.286 205.978 170.348 205.989 171.427C205.989 174.207 207.71 176.46 209.834 176.46C211.957 176.46 213.679 174.207 213.679 171.427C213.689 170.348 213.412 169.286 212.876 168.351C213.402 167.411 213.679 166.352 213.679 165.275C213.679 164.198 213.402 163.138 212.876 162.199C213.402 161.259 213.679 160.2 213.679 159.123C213.679 158.045 213.402 156.986 212.876 156.047C213.402 155.107 213.679 154.048 213.679 152.971C213.679 151.893 213.402 150.834 212.876 149.895Z" fill="#3F3D56"/>
<path d="M209.833 145.7C211.957 145.7 213.679 143.446 213.679 140.666C213.679 137.886 211.957 135.633 209.833 135.633C207.71 135.633 205.988 137.886 205.988 140.666C205.988 143.446 207.71 145.7 209.833 145.7Z" fill="#3F3D56"/>
<path d="M209.833 139.548C211.957 139.548 213.679 137.294 213.679 134.514C213.679 131.734 211.957 129.48 209.833 129.48C207.71 129.48 205.988 131.734 205.988 134.514C205.988 137.294 207.71 139.548 209.833 139.548Z" fill="#3F3D56"/>
<path fill-rule="evenodd" clip-rule="evenodd" d="M224.231 92.4127C224.756 91.7439 225.235 91.0396 225.663 90.3049L215.56 88.6456L226.486 88.7268C227.535 86.4461 228.106 83.9756 228.167 81.4663C228.227 78.9571 227.775 76.4618 226.838 74.1333L212.178 81.7381L225.698 71.8002C224.432 69.6113 222.728 67.7066 220.693 66.2048C218.658 64.703 216.336 63.6364 213.871 63.0712C211.406 62.5061 208.851 62.4547 206.365 62.9201C203.88 63.3855 201.516 64.3577 199.423 65.7764C197.329 67.195 195.55 69.0295 194.197 71.1657C192.843 73.3018 191.944 75.6939 191.555 78.1927C191.166 80.6916 191.296 83.2438 191.937 85.6902C192.577 88.1367 193.715 90.4251 195.278 92.4127C194.459 93.4536 193.755 94.5798 193.178 95.7716L206.292 102.585L192.309 97.8918C191.327 100.794 191.084 103.896 191.603 106.916C192.121 109.936 193.384 112.779 195.278 115.187C193.141 117.904 191.812 121.167 191.442 124.604C191.073 128.041 191.677 131.512 193.188 134.621C194.698 137.73 197.052 140.351 199.982 142.185C202.911 144.019 206.298 144.992 209.755 144.992C213.211 144.992 216.598 144.019 219.527 142.185C222.457 140.351 224.811 137.73 226.322 134.621C227.832 131.512 228.436 128.041 228.067 124.604C227.697 121.167 226.368 117.904 224.231 115.187C226.784 111.941 228.172 107.93 228.172 103.8C228.172 99.6696 226.784 95.6591 224.231 92.4125V92.4127Z" fill="#FF7D7A"/>
<path opacity="0.1" d="M191.336 103.799C191.33 107.93 192.719 111.943 195.278 115.186C193.141 117.903 191.811 121.166 191.442 124.603C191.072 128.039 191.677 131.51 193.187 134.62C194.697 137.729 197.051 140.35 199.981 142.184C202.911 144.018 206.298 144.991 209.754 144.991C213.21 144.991 216.597 144.018 219.527 142.184C222.456 140.35 224.811 137.729 226.321 134.62C227.831 131.51 228.436 128.039 228.066 124.603C227.696 121.166 226.367 117.903 224.23 115.186C226.699 112.052 191.336 101.732 191.336 103.799L191.336 103.799Z" fill="black"/>
</g>
<defs>
<clipPath id="clip0_3687_3827">
<rect width="227.488" height="227.488" fill="white" transform="translate(0.6875 0.964844)"/>
</clipPath>
</defs>
</svg>
