<svg width="228" height="229" viewBox="0 0 228 229" fill="none" xmlns="http://www.w3.org/2000/svg">
<g clip-path="url(#clip0_3687_3855)">
<path d="M210.165 149.904C209.912 150.45 209.659 150.989 209.407 151.521C209.014 152.346 208.626 153.156 208.243 153.95C208.072 154.302 207.902 154.647 207.736 154.992C205.857 158.831 204.103 162.226 202.613 165.018C201.261 167.547 199.253 169.667 196.801 171.155C194.348 172.642 191.541 173.443 188.672 173.472L155.541 173.833H155.192L152.352 173.863L149.922 173.89L142.472 173.97H142.171L138.378 174.012H138.263L114.886 174.265L94.0202 174.484L91.593 174.51L76.5186 174.674H76.5011L66.7246 174.779H66.6197L35.7062 175.113L26.4584 175.214C25.671 175.223 24.8837 175.183 24.1011 175.096C23.8346 175.065 23.568 175.03 23.3037 174.989C18.9907 174.323 15.0359 172.199 12.0984 168.972C8.12004 164.596 5.22531 159.49 3.28093 153.95C2.99983 153.15 2.73767 152.341 2.49444 151.521C-4.23662 128.767 3.96911 99.4111 18.7377 79.7663C19.3567 78.9448 19.9859 78.1438 20.6253 77.3631L20.6405 77.3456C25.1825 71.7703 30.2751 67.1125 35.6997 63.8005C45.3124 57.9215 55.9628 56.2655 66.4384 61.2007C75.3017 65.3778 83.5774 67.3419 91.5996 67.875C92.4101 67.9274 93.2206 67.9667 94.0268 67.9907C112.428 68.5697 129.675 61.9391 149.927 57.6593C150.733 57.4889 151.541 57.3207 152.356 57.1612C166.803 54.2861 182.83 52.7699 201.89 55.9574C203.87 56.2809 205.824 56.7482 207.736 57.3556C208.576 57.6265 209.386 57.9178 210.165 58.2295C219.262 61.9304 224.224 68.7685 226.332 77.3369C226.532 78.1321 226.704 78.9412 226.85 79.7641C230.588 100.375 219.64 129.61 210.165 149.904Z" fill="#F2F2F2"/>
<path opacity="0.1" d="M108.699 151.522C108.611 152.339 108.474 153.151 108.29 153.952H128.761V151.522H108.699ZM91.6034 165.244L94.0306 165.225V159.223C93.1982 159.186 92.3877 159.149 91.6034 159.11V165.244ZM40.7174 151.522V153.952H84.0837V151.522H40.7174ZM226.347 77.3472H210.18V58.2333C209.401 57.9173 208.591 57.626 207.751 57.3594V77.3472H152.36V57.1562C151.545 57.3157 150.737 57.484 149.93 57.6544V77.3472H94.0306V67.9858C93.2245 67.9618 92.4139 67.9224 91.6034 67.87V77.3472H35.7035V63.8021C30.2789 67.1141 25.1864 71.7719 20.6444 77.3472H20.6291V77.3647C19.9883 78.1512 19.3591 78.9523 18.7415 79.7679H20.6291V151.522H2.49609C2.73787 152.342 3.00003 153.152 3.28259 153.952H20.6269V174.405C21.4996 174.672 22.3903 174.875 23.2922 175.014C23.5566 175.056 23.8231 175.091 24.0897 175.121C24.8723 175.209 25.6595 175.248 26.4469 175.239L35.6948 175.139V153.947H91.6034V174.529L94.0306 174.503V153.952H149.93V173.911L152.36 173.885V153.952H207.74V154.994C207.906 154.648 208.076 154.303 208.247 153.952C208.63 153.158 209.018 152.348 209.411 151.522C209.663 150.992 209.916 150.453 210.169 149.905V79.7766H226.865C226.718 78.9479 226.545 78.1381 226.347 77.3472ZM35.7035 151.522V79.7679H91.6034V151.522H35.7035ZM94.035 151.522V79.7679H149.93V151.522H94.035ZM207.744 151.522H152.36V79.7679H207.74L207.744 151.522Z" fill="black"/>
<path d="M188.671 170.754V173.594L155.481 173.9L155.127 173.906L142.512 174.022L142.211 174.026L138.377 174.059H138.263L114.891 174.275L76.5258 174.632H76.493L66.7384 174.723L66.6335 174.726L23.2891 175.123V171.846L33.4807 165.729L53.9295 165.559L54.3664 165.556L54.5106 165.554L54.9475 165.548L64.7656 165.467L65.2047 165.465L65.3445 165.462L65.7815 165.46L68.9296 165.434L69.0126 165.432L76.7792 165.366H76.8426L137.446 164.855L138.93 164.844H139.078L140.21 164.833L148.435 164.765L148.872 164.759L149.276 164.755H149.486L152.044 164.735L152.551 164.728L153.231 164.724L155.361 164.704L158.74 164.676L159.177 164.672L159.938 164.667H160.08L176.402 164.527L188.671 170.754Z" fill="#65617D"/>
<path opacity="0.2" d="M188.671 170.754V173.594L155.481 173.9L155.127 173.906L142.512 174.022L142.211 174.026L138.377 174.059H138.263L114.891 174.275L76.5258 174.632H76.493L66.7384 174.723L66.6335 174.726L23.2891 175.123V171.846L33.4807 165.729L53.9295 165.559L54.3664 165.556L54.5106 165.554L54.9475 165.548L64.7656 165.467L65.2047 165.465L65.3445 165.462L65.7815 165.46L68.9296 165.434L69.0126 165.432L76.7792 165.366H76.8426L137.446 164.855L138.93 164.844H139.078L140.21 164.833L148.435 164.765L148.872 164.759L149.276 164.755H149.486L152.044 164.735L152.551 164.728L153.231 164.724L155.361 164.704L158.74 164.676L159.177 164.672L159.938 164.667H160.08L176.402 164.527L188.671 170.754Z" fill="black"/>
<path d="M64.8013 159.832V165.182C64.8014 165.436 64.7297 165.684 64.5943 165.898C64.4589 166.113 64.2656 166.284 64.0367 166.393C63.8662 166.475 63.6799 166.52 63.4905 166.524L55.8659 166.685C55.6623 166.69 55.4603 166.648 55.276 166.561C55.0431 166.454 54.8457 166.283 54.7075 166.067C54.5692 165.851 54.4958 165.6 54.4961 165.344V159.832H64.8013Z" fill="#3F3D56"/>
<path opacity="0.1" d="M64.8013 159.832V165.182C64.8014 165.436 64.7297 165.684 64.5943 165.898C64.4589 166.113 64.2656 166.284 64.0367 166.393C63.8662 166.475 63.6799 166.52 63.4905 166.524L55.8659 166.685C55.6623 166.69 55.4603 166.648 55.276 166.561C55.0431 166.454 54.8457 166.283 54.7075 166.067C54.5692 165.851 54.4958 165.6 54.4961 165.344V159.832H64.8013Z" fill="black"/>
<path d="M65.2388 159.832V165.182C65.2389 165.436 65.1672 165.684 65.0318 165.898C64.8964 166.113 64.7031 166.284 64.4742 166.393C64.3037 166.475 64.1174 166.52 63.928 166.524L56.3034 166.685C56.0998 166.69 55.8978 166.648 55.7135 166.561C55.4806 166.454 55.2832 166.283 55.145 166.067C55.0067 165.851 54.9333 165.6 54.9336 165.344V159.832H65.2388Z" fill="#3F3D56"/>
<path d="M148.867 159.832H159.172V166.714H148.867V159.832Z" fill="#3F3D56"/>
<path opacity="0.1" d="M148.867 159.832H159.172V166.714H148.867V159.832Z" fill="black"/>
<path d="M148.434 159.832H158.739V166.714H148.434V159.832Z" fill="#3F3D56"/>
<path opacity="0.1" d="M65.2388 159.832V160.918L54.9336 161.193V159.832H65.2388Z" fill="black"/>
<path d="M83.4285 122.41V159.156C83.4258 159.381 83.337 159.595 83.1805 159.756C83.0239 159.917 82.8116 160.011 82.5874 160.019L40.7176 161.134H40.7067C40.4787 161.131 40.2609 161.039 40.0996 160.878C39.9384 160.717 39.8466 160.499 39.8438 160.271V122.41C39.8466 122.182 39.9384 121.964 40.0996 121.803C40.2609 121.642 40.4787 121.55 40.7067 121.547H82.5655C82.7935 121.55 83.0114 121.642 83.1726 121.803C83.3338 121.964 83.4257 122.182 83.4285 122.41Z" fill="#65617D"/>
<path opacity="0.1" d="M40.7176 121.547V161.134H40.7067C40.4787 161.131 40.2609 161.039 40.0996 160.878C39.9384 160.717 39.8466 160.499 39.8438 160.271V122.41C39.8466 122.182 39.9384 121.964 40.0996 121.803C40.2609 121.642 40.4787 121.55 40.7067 121.547H40.7176Z" fill="black"/>
<path d="M42.625 123.895H81.4034V156.283L42.625 157.157V123.895Z" fill="#39374D"/>
<path opacity="0.1" d="M158.739 159.832V161.232L148.434 160.957V159.832H158.739Z" fill="black"/>
<path d="M172.343 122.41V160.271C172.341 160.501 172.247 160.72 172.084 160.882C171.92 161.043 171.699 161.134 171.47 161.134L129.591 160.019C129.367 160.011 129.155 159.917 128.998 159.756C128.841 159.595 128.753 159.381 128.75 159.156V122.41C128.753 122.182 128.845 121.964 129.006 121.803C129.167 121.642 129.385 121.55 129.613 121.547H171.472C171.701 121.547 171.921 121.638 172.084 121.8C172.248 121.961 172.341 122.18 172.343 122.41Z" fill="#65617D"/>
<path opacity="0.1" d="M172.339 122.41V160.271C172.336 160.501 172.243 160.72 172.079 160.882C171.915 161.043 171.695 161.134 171.465 161.134V121.547C171.695 121.547 171.915 121.637 172.079 121.799C172.243 121.96 172.336 122.18 172.339 122.41Z" fill="black"/>
<path d="M169.556 123.895H130.777V156.283L169.556 157.157V123.895Z" fill="#39374D"/>
<path d="M127.663 122.41V159.156C127.66 159.381 127.571 159.595 127.415 159.756C127.258 159.917 127.046 160.011 126.822 160.019L84.952 161.134C84.7221 161.134 84.5015 161.043 84.3379 160.882C84.1743 160.72 84.081 160.501 84.0781 160.271V122.41C84.081 122.182 84.1728 121.964 84.334 121.803C84.4952 121.642 84.7131 121.55 84.9411 121.547H126.8C127.028 121.55 127.246 121.642 127.407 121.803C127.568 121.964 127.66 122.182 127.663 122.41Z" fill="#65617D"/>
<path d="M86.8594 123.895H125.638V156.283L86.8594 157.157V123.895Z" fill="#4267B2"/>
<path opacity="0.1" d="M188.671 170.754V173.594L155.481 173.9L155.127 173.906L142.512 174.022L142.211 174.027L138.377 174.059H138.263L114.891 174.276L76.5258 174.632H76.493L66.7384 174.724L66.6335 174.726L23.2891 175.123V171.846L67.5314 171.556H67.6363L76.5914 171.495H76.6329L138.477 171.086H138.541L138.578 171.084H138.681L139.727 171.077H140.046L156.32 170.968L157.281 170.964L157.495 170.961L188.671 170.754Z" fill="black"/>
<path d="M106.562 130.518C112.755 130.518 117.776 125.497 117.776 119.304C117.776 113.111 112.755 108.09 106.562 108.09C100.368 108.09 95.3477 113.111 95.3477 119.304C95.3477 125.497 100.368 130.518 106.562 130.518Z" fill="#FBBEBE"/>
<path d="M117.779 136.565C117.779 136.565 96.0408 139.187 98.1163 136.565C98.8678 135.617 99.0753 132.807 99.0338 129.607C99.0207 128.635 98.9858 127.628 98.9355 126.625C98.6952 121.818 98.1163 117.121 98.1163 117.121C98.1163 117.121 117.123 108.164 114.938 115.264C114.065 118.133 114.351 122.161 115.015 125.943C115.209 127.046 115.434 128.128 115.67 129.155C116.246 131.659 116.95 134.133 117.779 136.565Z" fill="#FBBEBE"/>
<path d="M110.68 135.677C113.195 135.212 115.858 134.367 118.224 135.341C118.847 135.597 119.419 135.97 120.057 136.184C120.695 136.398 121.394 136.451 122.058 136.602C124.391 137.13 126.283 138.906 127.498 140.971C128.713 143.036 129.342 145.371 129.958 147.682L131.466 153.325C132.776 158.23 134.087 163.176 134.391 168.247C116.141 169.292 97.8501 169.396 79.5898 168.559C80.7783 166.3 81.993 163.904 81.8925 161.35C81.792 158.796 80.3217 156.277 80.8526 153.76C81.1912 152.157 82.2879 150.835 82.9586 149.343C84.8703 145.078 83.3825 139.339 86.7425 136.093C88.2544 134.633 90.4565 134.08 92.5604 134.15C95.2432 134.24 97.9894 135.077 100.644 135.485C104.043 136.001 107.255 136.307 110.68 135.677Z" fill="#FF6584"/>
<path opacity="0.1" d="M139.28 159.964L139.259 160.277V160.299L139.221 160.801L138.931 164.845L138.579 169.717L138.479 171.089L138.26 174.025V174.062L114.884 174.281L76.5228 174.696V174.879H76.4922V174.635L76.5905 171.497L76.7784 165.367L76.94 160.17L76.9553 159.652C76.9649 159.34 77.0381 159.032 77.1704 158.749C77.3027 158.466 77.4913 158.212 77.7248 158.004C77.9583 157.796 78.2317 157.638 78.5284 157.54C78.8251 157.441 79.1387 157.404 79.4503 157.43C80.4814 157.518 81.8207 157.625 83.4221 157.738L84.0775 157.786C93.3253 158.429 110.416 159.259 127.662 158.223C128.025 158.204 128.39 158.182 128.755 158.156C131.429 157.987 134.101 157.771 136.746 157.5C137.081 157.465 137.419 157.504 137.737 157.614C138.054 157.723 138.344 157.901 138.586 158.135C138.828 158.369 139.015 158.653 139.135 158.967C139.255 159.281 139.305 159.618 139.28 159.954V159.964Z" fill="black"/>
<path d="M76.5156 174.878V174.694L114.883 174.277L138.26 174.058H138.325V174.021L138.544 171.085L138.638 169.774L138.996 164.835L139.278 160.924V160.828C139.291 160.648 139.283 160.467 139.254 160.288C139.255 160.281 139.255 160.274 139.254 160.266C139.194 159.898 139.044 159.55 138.817 159.253C138.576 158.944 138.261 158.702 137.901 158.549C137.541 158.396 137.148 158.338 136.759 158.379C134.099 158.649 131.435 158.868 128.767 159.034C128.402 159.06 128.037 159.082 127.675 159.102C110.429 160.127 93.3378 159.296 84.09 158.665L83.4346 158.617C81.8332 158.503 80.494 158.399 79.4628 158.309C78.8955 158.261 78.3306 158.425 77.8771 158.769C77.4237 159.113 77.1137 159.613 77.0072 160.172C76.9851 160.291 76.972 160.411 76.9679 160.531L76.8193 165.372L76.6161 171.505L76.52 174.642V174.886L76.5156 174.878Z" fill="#3F3D56"/>
<path opacity="0.1" d="M139.351 161.497L139.082 164.846L138.682 169.838L138.582 171.088L138.363 173.886L138.35 174.026V174.063L138.317 174.386L138.341 174.063H138.278L114.902 174.282L76.5273 174.697V174.635L76.6344 171.498L76.8529 165.368L76.9927 161.294C76.9996 161.062 77.0643 160.835 77.1811 160.635C77.2979 160.435 77.4629 160.267 77.6612 160.147C77.9086 159.995 78.1978 159.926 78.487 159.95C78.9458 159.987 79.5095 160.031 80.1671 160.079C81.2354 160.157 82.5527 160.249 84.0864 160.345C86.9265 160.525 90.4898 160.717 94.573 160.874C105.933 161.311 121.27 161.457 135.838 160.182C136.493 160.125 137.17 160.061 137.832 159.998C138.094 159.972 138.358 160.022 138.592 160.142C138.659 160.175 138.722 160.215 138.78 160.26C138.971 160.398 139.121 160.583 139.217 160.798C139.24 160.84 139.258 160.885 139.272 160.931C139.338 161.112 139.364 161.305 139.351 161.497Z" fill="black"/>
<path opacity="0.1" d="M65.2388 164.484V165.181C65.2389 165.435 65.1672 165.683 65.0318 165.897C64.8964 166.111 64.7031 166.283 64.4742 166.392L55.7135 166.56C55.4806 166.453 55.2832 166.282 55.145 166.066C55.0067 165.85 54.9333 165.599 54.9336 165.343V164.688L65.2388 164.484Z" fill="black"/>
<path d="M65.3447 166.804L53.9297 167.023V165.129L65.3447 164.91V166.804Z" fill="#3F3D56"/>
<path opacity="0.1" d="M65.3447 166.804L53.9297 167.023V165.129L65.3447 164.91V166.804Z" fill="black"/>
<path d="M65.7783 166.804L54.3633 167.023V165.129L65.7783 164.91V166.804Z" fill="#3F3D56"/>
<path opacity="0.1" d="M148.496 164.926V165.623C148.496 165.876 148.568 166.124 148.703 166.339C148.838 166.553 149.032 166.724 149.261 166.833L158.021 167.001C158.254 166.894 158.452 166.723 158.59 166.507C158.728 166.292 158.802 166.041 158.801 165.784V165.129L148.496 164.926Z" fill="black"/>
<path opacity="0.1" d="M148.391 167.242L159.806 167.46V165.566L148.391 165.348V167.242Z" fill="black"/>
<path d="M147.953 167.242L159.368 167.46V165.566L147.953 165.348V167.242Z" fill="#3F3D56"/>
<path d="M99.4664 122.743C99.4839 124.273 98.776 125.714 98.1752 127.128C95.9878 132.277 95.0404 137.868 95.4094 143.45C95.5689 145.853 95.9731 148.256 95.5689 150.638C95.1647 153.019 93.7272 155.394 91.418 156.077C95.2477 158.36 100.432 158.12 104.037 155.496C105.957 154.098 107.388 152.147 108.789 150.229C108.622 153.675 107.625 157.029 105.881 160.006C109.033 159.726 112.091 158.788 114.858 157.252C117.624 155.716 120.037 153.616 121.94 151.088C122.882 149.818 123.701 148.424 124.064 146.886C124.739 144.046 123.797 141.095 123.079 138.257C122.478 135.884 122.028 133.476 121.731 131.047C121.637 130.27 121.56 129.47 121.753 128.71C121.971 127.821 122.554 127.069 122.985 126.258C124.208 123.956 124.237 121.168 123.61 118.638C122.982 116.108 121.755 113.775 120.538 111.47C119.563 109.622 118.506 107.689 116.723 106.603C115.609 105.925 114.32 105.644 113.036 105.371L107.493 104.184C106.28 103.924 105.033 103.664 103.807 103.854C101.738 104.178 100.281 105.672 99.0011 107.206C97.9983 108.399 95.547 110.638 95.3745 112.2C95.2172 113.64 96.4887 116.052 96.7049 117.57C96.9889 119.536 97.1899 118.881 98.2998 120.087C99.0011 120.834 99.4533 121.697 99.4664 122.743Z" fill="#3F3D56"/>
<path d="M159.592 140.634C159.592 139.361 157.997 138.154 155.553 137.406C156.117 134.915 155.866 132.932 154.762 132.297C154.494 132.148 154.191 132.072 153.885 132.079V132.953C154.04 132.948 154.193 132.983 154.331 133.055C154.864 133.361 155.096 134.524 154.915 136.02C154.871 136.388 154.801 136.776 154.715 137.172C153.896 136.975 153.065 136.832 152.228 136.745C151.729 136.057 151.184 135.402 150.598 134.787C151.875 133.6 153.074 132.949 153.889 132.949V132.074C152.811 132.074 151.401 132.842 149.975 134.174C148.549 132.85 147.139 132.09 146.062 132.09V132.964C146.873 132.964 148.075 133.61 149.352 134.789C148.769 135.403 148.228 136.056 147.735 136.744C146.895 136.83 146.063 136.974 145.244 137.175C145.158 136.8 145.09 136.421 145.04 136.039C144.856 134.542 145.084 133.379 145.612 133.069C145.751 132.996 145.906 132.96 146.063 132.968V132.094C145.754 132.087 145.448 132.162 145.178 132.312C144.077 132.946 143.83 134.925 144.398 137.409C141.962 138.161 140.375 139.363 140.375 140.633C140.375 141.906 141.97 143.112 144.414 143.86C143.85 146.351 144.101 148.334 145.205 148.969C145.474 149.119 145.778 149.195 146.086 149.187C147.164 149.187 148.574 148.419 150 147.087C151.426 148.412 152.836 149.171 153.913 149.171C154.223 149.178 154.528 149.103 154.799 148.953C155.899 148.319 156.146 146.34 155.578 143.857C158.006 143.109 159.592 141.903 159.592 140.634ZM154.492 138.021C154.34 138.545 154.163 139.061 153.963 139.568C153.801 139.25 153.63 138.937 153.45 138.629C153.269 138.318 153.081 138.012 152.885 137.711C153.442 137.794 153.978 137.895 154.492 138.021ZM152.698 142.194C152.392 142.722 152.079 143.224 151.754 143.69C151.165 143.742 150.575 143.768 149.984 143.768C149.392 143.768 148.801 143.741 148.221 143.694C147.896 143.228 147.58 142.732 147.273 142.205C146.975 141.692 146.704 141.173 146.458 140.646C146.706 140.114 146.977 139.593 147.269 139.083C147.575 138.554 147.888 138.053 148.213 137.587C148.802 137.535 149.392 137.509 149.983 137.508C150.574 137.508 151.166 137.536 151.746 137.583C152.071 138.049 152.387 138.545 152.694 139.072C152.991 139.585 153.263 140.104 153.509 140.631C153.259 141.162 152.989 141.683 152.698 142.193V142.194ZM153.963 141.684C154.169 142.195 154.349 142.715 154.503 143.243C153.971 143.373 153.432 143.477 152.89 143.557C153.082 143.255 153.273 142.945 153.454 142.628C153.631 142.318 153.801 142.003 153.963 141.683L153.963 141.684ZM149.991 145.863C149.606 145.464 149.243 145.046 148.902 144.61C149.254 144.625 149.615 144.637 149.979 144.637C150.347 144.637 150.711 144.629 151.068 144.61C150.732 145.047 150.372 145.465 149.991 145.863ZM147.076 143.556C146.52 143.474 145.984 143.372 145.47 143.246C145.622 142.723 145.799 142.206 145.999 141.699C146.16 142.012 146.328 142.326 146.512 142.638C146.696 142.951 146.884 143.258 147.076 143.556ZM149.971 135.404C150.355 135.803 150.719 136.221 151.06 136.657C150.701 136.64 150.342 136.631 149.983 136.63C149.615 136.63 149.25 136.638 148.894 136.657C149.23 136.221 149.59 135.802 149.971 135.404ZM147.072 137.711C146.684 138.315 146.326 138.939 145.999 139.579C145.793 139.068 145.613 138.548 145.459 138.02C145.992 137.894 146.53 137.791 147.072 137.711ZM143.527 142.615C142.14 142.024 141.243 141.248 141.243 140.633C141.243 140.018 142.14 139.239 143.527 138.651C143.864 138.506 144.233 138.377 144.612 138.255C144.852 139.069 145.147 139.866 145.494 140.641C145.15 141.411 144.86 142.205 144.624 143.015C144.252 142.9 143.886 142.767 143.527 142.616L143.527 142.615ZM145.635 148.213C145.102 147.907 144.87 146.744 145.051 145.248C145.095 144.879 145.165 144.491 145.251 144.096C146.07 144.293 146.901 144.436 147.738 144.523C148.237 145.211 148.782 145.865 149.368 146.481C148.091 147.668 146.892 148.319 146.077 148.319C145.923 148.321 145.771 148.285 145.635 148.214L145.635 148.213ZM154.927 145.228C155.111 146.725 154.883 147.888 154.355 148.198C154.217 148.271 154.061 148.307 153.904 148.299C153.093 148.299 151.891 147.653 150.614 146.474C151.197 145.86 151.738 145.207 152.232 144.519C153.071 144.433 153.903 144.289 154.722 144.088C154.81 144.465 154.879 144.845 154.927 145.229L154.927 145.228ZM156.434 142.615C156.097 142.76 155.729 142.889 155.349 143.011C155.11 142.197 154.815 141.4 154.468 140.625C154.811 139.855 155.102 139.061 155.338 138.251C155.711 138.367 156.078 138.5 156.438 138.651C157.825 139.242 158.722 140.018 158.722 140.633C158.719 141.249 157.822 142.028 156.435 142.616L156.434 142.615Z" fill="#61DAFB"/>
<path d="M149.978 142.424C150.966 142.424 151.768 141.623 151.768 140.634C151.768 139.645 150.966 138.844 149.978 138.844C148.989 138.844 148.188 139.645 148.188 140.634C148.188 141.623 148.989 142.424 149.978 142.424Z" fill="#61DAFB"/>
</g>
<defs>
<clipPath id="clip0_3687_3855">
<rect width="227.488" height="227.488" fill="white" transform="translate(0.128906 0.964844)"/>
</clipPath>
</defs>
</svg>
